<svg width="74" height="74" viewBox="0 0 74 74" fill="none" xmlns="http://www.w3.org/2000/svg">
<path d="M28.35 38.1C29.85 35 32.5667 33.45 36.5 33.45C39.1 33.45 40.9333 34.1 42 35.4C42.5667 36.0333 42.9667 36.8667 43.2 37.9C43.4667 38.9 43.6 40.2333 43.6 41.9V55.35C43.6 56.7167 43.8333 57.6667 44.3 58.2C44.7667 58.7 45.6 58.95 46.8 58.95V60C43.3333 59.8667 41.1333 59.8 40.2 59.8C39.0667 59.8 36.9 59.8667 33.7 60V58.95C34.7 58.95 35.4 58.7 35.8 58.2C36.2 57.6667 36.4 56.7167 36.4 55.35V39.8C36.4 38.4333 36.1667 37.4 35.7 36.7C35.2667 36 34.4667 35.65 33.3 35.65C31.9 35.65 30.7167 36.2 29.75 37.3C28.8167 38.3667 28.35 39.7333 28.35 41.4V55.35C28.35 56.7167 28.55 57.6667 28.95 58.2C29.35 58.7 30.05 58.95 31.05 58.95V60C27.85 59.8667 25.7833 59.8 24.85 59.8C23.7167 59.8 21.4167 59.8667 17.95 60V58.95C19.1167 58.95 19.9333 58.7 20.4 58.2C20.9 57.6667 21.15 56.7167 21.15 55.35V26.9C21.15 25.3667 20.9 24.25 20.4 23.55C19.9333 22.85 19.1167 22.5 17.95 22.5V21.45C19.0167 21.55 20.05 21.6 21.05 21.6C23.95 21.6 26.3833 21.3667 28.35 20.9V38.1ZM54.1699 53C55.4699 53 56.5033 53.35 57.2699 54.05C58.0366 54.7167 58.4199 55.65 58.4199 56.85C58.4199 58.05 58.0366 59 57.2699 59.7C56.5033 60.3667 55.4699 60.7 54.1699 60.7C52.8699 60.7 51.8366 60.3667 51.0699 59.7C50.3033 59 49.9199 58.05 49.9199 56.85C49.9199 55.65 50.3033 54.7167 51.0699 54.05C51.8366 53.35 52.8699 53 54.1699 53Z" fill="#A553A7" />
</svg>
